<svg width="40" height="32" viewBox="0 0 40 32" fill="none" xmlns="http://www.w3.org/2000/svg">
<circle cx="26.7875" cy="14.956" r="12.8696" fill="#F4312A" fill-opacity="0.2"/>
<path d="M16.0979 14.9994C16.3741 14.9994 16.5978 14.7757 16.5978 14.4994C16.5978 14.2232 16.3741 13.9995 16.0979 13.9995C14.7192 13.9995 13.5979 12.8783 13.5979 11.4996C13.5979 10.1208 14.7192 8.99964 16.0979 8.99964C17.4766 8.99964 18.5978 10.1208 18.5978 11.4996C18.5978 11.7745 18.3728 11.9995 18.0978 11.9995C17.8215 11.9995 17.5978 11.7745 17.5978 11.4996C17.5978 10.6721 16.9253 9.9996 16.0979 9.9996C15.2704 9.9996 14.5979 10.6721 14.5979 11.4996C14.5979 12.3258 15.2704 12.9995 16.0979 12.9995C16.4816 12.9995 16.8328 12.8545 17.0978 12.617C17.3628 12.8545 17.7141 12.9995 18.0978 12.9995C18.9252 12.9995 19.5977 12.327 19.5977 11.4996C19.5977 9.56963 18.0278 7.99951 16.0977 7.99951C14.1676 7.99951 12.5977 9.56944 12.5977 11.4996C12.5977 13.4297 14.1677 14.9994 16.0979 14.9994ZM16.0979 11.9995C15.8229 11.9995 15.5979 11.7745 15.5979 11.4996C15.5979 11.2246 15.8229 10.9996 16.0979 10.9996C16.3728 10.9996 16.5978 11.2246 16.5978 11.4996C16.5978 11.7745 16.3728 11.9995 16.0979 11.9995Z" fill="#F4312A"/>
<path d="M31.5548 12.3444L27.5988 9.06964V5.49984C27.5988 4.67238 26.9263 3.99989 26.0988 3.99989H21.4727L17.0553 0.34498C16.7878 0.122489 16.4478 0 16.0991 0C15.7516 0 15.4116 0.122495 15.1428 0.34498L10.7254 3.99989H6.09931C5.27185 3.99989 4.59936 4.67238 4.59936 5.49984V9.06964L0.643335 12.3444C0.298355 12.6294 0.0996094 13.0519 0.0996094 13.4994V30.4988C0.0996094 30.5088 0.0996094 30.5188 0.100859 30.5275C0.103359 30.6875 0.130858 30.85 0.188357 31.0075C0.4021 31.6 0.96833 32 1.59957 32H30.5986C31.2286 32 31.796 31.6013 32.0098 31.0075C32.066 30.8513 32.0948 30.6888 32.0973 30.5275C32.0973 30.5175 32.0985 30.5088 32.0985 30.4988V13.4994C32.0985 13.0507 31.901 12.6294 31.5548 12.3444ZM15.7803 1.11471C15.8703 1.04097 15.9828 0.999716 16.099 0.999716C16.2153 0.999716 16.329 1.03971 16.4178 1.11471L19.904 3.99961H12.2944L15.7803 1.11471ZM5.59952 5.49952C5.59952 5.22453 5.82451 4.99954 6.0995 4.99954H26.0988C26.3738 4.99954 26.5988 5.22453 26.5988 5.49952V17.4591L21.8966 21.3515L17.0554 17.3452C16.788 17.1227 16.448 17.0002 16.0992 17.0002C15.7517 17.0002 15.4118 17.1227 15.143 17.3452L10.3019 21.3515L5.59964 17.4591L5.59952 5.49952ZM1.28094 13.1143L4.59955 10.3669V16.6304L1.28094 13.883C1.16595 13.788 1.0997 13.648 1.0997 13.498C1.0997 13.3493 1.16595 13.208 1.28094 13.113V13.1143ZM1.0997 15.0317L9.51701 21.9989L1.0997 28.966V15.0317ZM31.0686 30.6686C30.9973 30.8661 30.8086 30.9986 30.5986 30.9986H1.59959C1.38959 30.9986 1.1996 30.8661 1.12959 30.6686C1.05834 30.4711 1.11959 30.2487 1.28208 30.1149L15.7814 18.1153C15.8714 18.0416 15.9839 18.0003 16.1002 18.0003C16.2164 18.0003 16.3302 18.0403 16.4189 18.1153L30.9182 30.1149C31.0807 30.2486 31.1407 30.4724 31.0707 30.6686H31.0686ZM31.0986 28.9662L22.6813 21.9991L31.0986 15.032V28.9662ZM30.9173 13.8842L27.5987 16.6316V10.3681L30.9173 13.1155C31.0323 13.2105 31.0986 13.3505 31.0986 13.5005C31.0986 13.6492 31.0323 13.7905 30.9173 13.8854V13.8842Z" fill="#F4312A"/>
</svg>
