<svg width="428" height="926" viewBox="0 0 428 926" fill="none" xmlns="http://www.w3.org/2000/svg">
<g clip-path="url(#clip0_1476_4958)">
<rect width="428" height="926" rx="40" fill="white"/>
<path d="M30.0858 149H12.5073C11.501 149 11.125 150.319 11.98 150.85L22.8263 157.582C23.2209 157.827 23.7323 157.768 24.0607 157.439L30.7929 150.707C31.4229 150.077 30.9767 149 30.0858 149Z" fill="#FCFEFB"/>

<path opacity="0.35" fill-rule="evenodd" clip-rule="evenodd" d="M360.641 27.5227H384.747C386.498 27.5227 387.918 28.9428 387.918 30.6945V38.9413C387.918 40.6931 386.498 42.1132 384.747 42.1132H360.641C358.889 42.1132 357.469 40.6931 357.469 38.9413V30.6945C357.469 28.9428 358.889 27.5227 360.641 27.5227ZM360.641 28.7912C359.59 28.7912 358.738 29.6433 358.738 30.6943V38.9411C358.738 39.9922 359.59 40.8442 360.641 40.8442H384.747C385.798 40.8442 386.65 39.9922 386.65 38.9411V30.6943C386.65 29.6433 385.798 28.7912 384.747 28.7912H360.641Z" fill="#606D75"/>
<path fill-rule="evenodd" clip-rule="evenodd" d="M389.188 31.7091C390.317 32.2866 391.091 33.4618 391.091 34.8177C391.091 36.1736 390.317 37.3488 389.188 37.9263V31.7091Z" fill="#7B7B7B"/>
<path fill-rule="evenodd" clip-rule="evenodd" d="M361.275 30.0599H384.112C384.813 30.0599 385.381 30.628 385.381 31.3287V38.3067C385.381 39.0074 384.813 39.5755 384.112 39.5755H361.275C360.574 39.5755 360.006 39.0074 360.006 38.3067V31.3287C360.006 30.628 360.574 30.0599 361.275 30.0599Z" fill="#7B7B7B"/>
<path fill-rule="evenodd" clip-rule="evenodd" d="M336.934 28.6627H338.203C338.903 28.6627 339.471 29.2308 339.471 29.9315V40.0814C339.471 40.7821 338.903 41.3501 338.203 41.3501H336.934C336.233 41.3501 335.665 40.7821 335.665 40.0814V29.9315C335.665 29.2308 336.233 28.6627 336.934 28.6627Z" fill="#7B7B7B"/>
<path d="M332.493 31.2002H331.224C330.524 31.2002 329.956 31.7682 329.956 32.4689V40.0814C329.956 40.7821 330.524 41.3501 331.224 41.3501H332.493C333.194 41.3501 333.762 40.7821 333.762 40.0814V32.4689C333.762 31.7682 333.194 31.2002 332.493 31.2002Z" fill="#7B7B7B"/>
<path d="M325.515 33.7377H326.784C327.485 33.7377 328.053 34.3057 328.053 35.0064V40.0814C328.053 40.7821 327.485 41.3501 326.784 41.3501H325.515C324.814 41.3501 324.246 40.7821 324.246 40.0814V35.0064C324.246 34.3057 324.814 33.7377 325.515 33.7377Z" fill="#7B7B7B"/>
<path d="M319.806 35.6408H321.075C321.775 35.6408 322.343 36.2088 322.343 36.9095V40.0814C322.343 40.7821 321.775 41.3501 321.075 41.3501H319.806C319.105 41.3501 318.537 40.7821 318.537 40.0814V36.9095C318.537 36.2088 319.105 35.6408 319.806 35.6408Z" fill="#7B7B7B"/>
<g clip-path="url(#clip1_1476_4958)">
<path fill-rule="evenodd" clip-rule="evenodd" d="M310.74 31.8637C308.316 29.7926 305.253 28.6627 302.05 28.6627C298.837 28.6627 295.765 29.7994 293.338 31.8816L293.131 32.0584C292.965 32.2015 292.955 32.4557 293.111 32.6107L294.541 34.0366C294.679 34.1749 294.901 34.1844 295.051 34.0583L295.228 33.9095C297.14 32.3033 299.541 31.429 302.05 31.429C304.55 31.429 306.943 32.2973 308.852 33.8935L309.029 34.0416C309.179 34.1671 309.4 34.1574 309.539 34.0193L310.969 32.5932C311.125 32.4379 311.115 32.1833 310.947 32.0405L310.74 31.8637ZM302.05 33.065C304.068 33.065 306.006 33.7345 307.584 34.9745L307.808 35.1497C307.985 35.2895 308.001 35.5527 307.841 35.7124L306.406 37.143C306.274 37.2754 306.064 37.2906 305.913 37.1787L305.738 37.0488C304.672 36.2563 303.386 35.8313 302.05 35.8313C300.704 35.8313 299.411 36.2616 298.342 37.0631L298.166 37.1943C298.016 37.3071 297.805 37.2922 297.672 37.1595L296.238 35.7293C296.078 35.57 296.093 35.3074 296.27 35.1675L296.492 34.9921C298.075 33.7411 300.021 33.065 302.05 33.065ZM302.05 37.4672C302.861 37.4672 303.649 37.6804 304.344 38.087L304.625 38.2517C304.839 38.3766 304.876 38.6688 304.701 38.8433L302.298 41.2397C302.151 41.3869 301.911 41.3869 301.764 41.2397L299.376 38.8587C299.202 38.685 299.238 38.3942 299.45 38.2684L299.728 38.103C300.429 37.6861 301.227 37.4672 302.05 37.4672Z" fill="#7B7B7B"/>
</g>
<path d="M57.4293 29.8934C55.1025 29.8934 53.4447 31.4843 53.4447 33.6624V33.6773C53.4447 35.7142 54.8869 37.2159 56.9461 37.2159C58.418 37.2159 59.3547 36.4651 59.7487 35.6176H59.8974C59.8974 35.6994 59.89 35.7811 59.89 35.8629C59.8082 37.9147 59.0871 39.5799 57.3847 39.5799C56.4406 39.5799 55.779 39.0893 55.4965 38.3384L55.4742 38.2641H53.5859L53.6008 38.3459C53.9428 39.9888 55.4147 41.1559 57.3847 41.1559C60.0832 41.1559 61.7113 39.0149 61.7113 35.402V35.3871C61.7113 31.5215 59.719 29.8934 57.4293 29.8934ZM57.4219 35.744C56.2027 35.744 55.318 34.8519 55.318 33.6104V33.5955C55.318 32.3987 56.2622 31.4545 57.4442 31.4545C58.6336 31.4545 59.5629 32.4135 59.5629 33.6401V33.655C59.5629 34.8668 58.6336 35.744 57.4219 35.744ZM65.0863 33.9375C65.7703 33.9375 66.2683 33.4171 66.2683 32.7629C66.2683 32.1013 65.7703 31.5884 65.0863 31.5884C64.4098 31.5884 63.9043 32.1013 63.9043 32.7629C63.9043 33.4171 64.4098 33.9375 65.0863 33.9375ZM65.0863 39.4535C65.7703 39.4535 66.2683 38.9406 66.2683 38.279C66.2683 37.6173 65.7703 37.1044 65.0863 37.1044C64.4098 37.1044 63.9043 37.6173 63.9043 38.279C63.9043 38.9406 64.4098 39.4535 65.0863 39.4535ZM73.6652 40.8883H75.5014V38.8291H76.9436V37.2456H75.5014V30.161H72.788C71.3309 32.3764 69.8069 34.8445 68.4168 37.2605V38.8291H73.6652V40.8883ZM70.2009 37.2902V37.1787C71.2417 35.3574 72.4832 33.3725 73.5834 31.6924H73.6949V37.2902H70.2009ZM81.3891 40.8883H83.3071V30.161H81.3966L78.5939 32.131V33.9375L81.2627 32.0493H81.3891V40.8883ZM89.7524 40.8883H91.7596L92.6516 38.1154H96.6214L97.5209 40.8883H99.5281L95.7219 30.161H93.5586L89.7524 40.8883ZM94.5771 32.1533H94.7034L96.1456 36.6361H93.1349L94.5771 32.1533ZM101.372 40.8883H103.104V33.261H103.23L106.204 40.8883H107.512L110.486 33.261H110.62V40.8883H112.344V30.161H110.144L106.925 38.4128H106.799L103.572 30.161H101.372V40.8883Z" fill="#7B7B7B"/>
<path d="M108.534 80.5159C108.534 80.2994 108.501 80.1052 108.434 79.9331C108.373 79.7555 108.256 79.5945 108.084 79.4502C107.912 79.3003 107.671 79.1533 107.36 79.0089C107.049 78.8646 106.647 78.7148 106.153 78.5594C105.603 78.3817 105.081 78.1819 104.587 77.9599C104.099 77.7379 103.666 77.4798 103.289 77.1856C102.917 76.8859 102.623 76.539 102.406 76.1449C102.195 75.7508 102.09 75.2929 102.09 74.7712C102.09 74.2661 102.201 73.8082 102.423 73.3974C102.645 72.9811 102.956 72.6259 103.355 72.3317C103.755 72.032 104.227 71.8017 104.771 71.6407C105.32 71.4797 105.922 71.3992 106.577 71.3992C107.471 71.3992 108.251 71.5602 108.917 71.8821C109.583 72.2041 110.099 72.6453 110.465 73.2059C110.837 73.7665 111.023 74.4076 111.023 75.1292H108.542C108.542 74.7739 108.467 74.4631 108.317 74.1967C108.173 73.9247 107.951 73.711 107.651 73.5556C107.357 73.4002 106.985 73.3225 106.536 73.3225C106.103 73.3225 105.742 73.3891 105.453 73.5223C105.165 73.65 104.948 73.8248 104.804 74.0468C104.66 74.2633 104.587 74.5075 104.587 74.7795C104.587 74.9849 104.637 75.1708 104.737 75.3373C104.843 75.5038 104.998 75.6592 105.204 75.8035C105.409 75.9479 105.661 76.0838 105.961 76.2115C106.261 76.3392 106.608 76.4641 107.002 76.5862C107.662 76.786 108.242 77.0108 108.742 77.2605C109.247 77.5103 109.669 77.7906 110.008 78.1014C110.346 78.4123 110.601 78.7647 110.773 79.1588C110.946 79.5529 111.032 79.9997 111.032 80.4992C111.032 81.0265 110.929 81.4983 110.724 81.9146C110.518 82.3309 110.221 82.6834 109.833 82.972C109.444 83.2606 108.981 83.4798 108.442 83.6297C107.904 83.7796 107.302 83.8545 106.636 83.8545C106.036 83.8545 105.445 83.7768 104.862 83.6214C104.279 83.4604 103.749 83.219 103.272 82.897C102.8 82.5751 102.423 82.1644 102.14 81.6648C101.857 81.1653 101.715 80.5742 101.715 79.8915H104.221C104.221 80.2689 104.279 80.5881 104.396 80.8489C104.513 81.1098 104.676 81.3207 104.887 81.4817C105.104 81.6426 105.359 81.7592 105.653 81.8314C105.953 81.9035 106.28 81.9396 106.636 81.9396C107.069 81.9396 107.424 81.8785 107.701 81.7564C107.984 81.6343 108.192 81.465 108.326 81.2486C108.464 81.0321 108.534 80.7879 108.534 80.5159ZM122.688 77.3438V77.9183C122.688 78.8397 122.563 79.6667 122.313 80.3993C122.063 81.132 121.711 81.7564 121.256 82.2726C120.8 82.7833 120.256 83.1746 119.624 83.4465C118.996 83.7185 118.3 83.8545 117.534 83.8545C116.774 83.8545 116.077 83.7185 115.444 83.4465C114.817 83.1746 114.273 82.7833 113.812 82.2726C113.352 81.7564 112.994 81.132 112.738 80.3993C112.489 79.6667 112.364 78.8397 112.364 77.9183V77.3438C112.364 76.4169 112.489 75.5899 112.738 74.8627C112.988 74.1301 113.341 73.5057 113.796 72.9895C114.256 72.4733 114.8 72.0792 115.428 71.8072C116.06 71.5352 116.757 71.3992 117.517 71.3992C118.283 71.3992 118.98 71.5352 119.607 71.8072C120.24 72.0792 120.784 72.4733 121.239 72.9895C121.7 73.5057 122.055 74.1301 122.305 74.8627C122.56 75.5899 122.688 76.4169 122.688 77.3438ZM120.165 77.9183V77.3271C120.165 76.6833 120.107 76.1171 119.99 75.6287C119.873 75.1403 119.701 74.7295 119.474 74.3965C119.246 74.0635 118.969 73.8137 118.641 73.6472C118.314 73.4751 117.939 73.3891 117.517 73.3891C117.095 73.3891 116.721 73.4751 116.393 73.6472C116.071 73.8137 115.797 74.0635 115.569 74.3965C115.347 74.7295 115.178 75.1403 115.061 75.6287C114.945 76.1171 114.886 76.6833 114.886 77.3271V77.9183C114.886 78.5566 114.945 79.1227 115.061 79.6167C115.178 80.1052 115.35 80.5187 115.577 80.8572C115.805 81.1903 116.082 81.4428 116.41 81.6149C116.737 81.787 117.112 81.873 117.534 81.873C117.956 81.873 118.33 81.787 118.658 81.6149C118.985 81.4428 119.26 81.1903 119.482 80.8572C119.704 80.5187 119.873 80.1052 119.99 79.6167C120.107 79.1227 120.165 78.5566 120.165 77.9183ZM124.486 71.5658H129.007C129.934 71.5658 130.73 71.7045 131.396 71.982C132.068 72.2596 132.584 72.6703 132.945 73.2143C133.306 73.7582 133.486 74.427 133.486 75.2207C133.486 75.8702 133.375 76.428 133.153 76.8942C132.936 77.3549 132.628 77.7407 132.229 78.0515C131.835 78.3568 131.371 78.601 130.838 78.7841L130.047 79.2004H126.118L126.101 77.2522H129.023C129.462 77.2522 129.825 77.1745 130.114 77.0191C130.403 76.8637 130.619 76.6472 130.763 76.3697C130.913 76.0922 130.988 75.7702 130.988 75.4039C130.988 75.0154 130.916 74.6796 130.772 74.3965C130.627 74.1134 130.408 73.897 130.114 73.7471C129.82 73.5972 129.451 73.5223 129.007 73.5223H126.984V83.688H124.486V71.5658ZM131.263 83.688L128.499 78.2846L131.138 78.268L133.936 83.5714V83.688H131.263ZM135.409 71.5658H139.93C140.857 71.5658 141.654 71.7045 142.32 71.982C142.991 72.2596 143.507 72.6703 143.868 73.2143C144.229 73.7582 144.409 74.427 144.409 75.2207C144.409 75.8702 144.298 76.428 144.076 76.8942C143.86 77.3549 143.552 77.7407 143.152 78.0515C142.758 78.3568 142.295 78.601 141.762 78.7841L140.971 79.2004H137.041L137.024 77.2522H139.947C140.385 77.2522 140.749 77.1745 141.037 77.0191C141.326 76.8637 141.542 76.6472 141.687 76.3697C141.837 76.0922 141.912 75.7702 141.912 75.4039C141.912 75.0154 141.839 74.6796 141.695 74.3965C141.551 74.1134 141.332 73.897 141.037 73.7471C140.743 73.5972 140.374 73.5223 139.93 73.5223H137.907V83.688H135.409V71.5658ZM142.186 83.688L139.422 78.2846L142.061 78.268L144.859 83.5714V83.688H142.186ZM154.467 81.7398V83.688H148.014V81.7398H154.467ZM148.83 71.5658V83.688H146.333V71.5658H148.83ZM153.626 76.5029V78.4012H148.014V76.5029H153.626ZM154.458 71.5658V73.5223H148.014V71.5658H154.458ZM165.79 71.5658V83.688H163.292L158.421 75.5621V83.688H155.924V71.5658H158.421L163.3 79.7V71.5658H165.79ZM173.133 71.5658V83.688H170.644V71.5658H173.133ZM176.863 71.5658V73.5223H166.972V71.5658H176.863ZM188.011 77.3438V77.9183C188.011 78.8397 187.886 79.6667 187.636 80.3993C187.387 81.132 187.034 81.7564 186.579 82.2726C186.124 82.7833 185.58 83.1746 184.947 83.4465C184.32 83.7185 183.623 83.8545 182.857 83.8545C182.097 83.8545 181.4 83.7185 180.768 83.4465C180.14 83.1746 179.597 82.7833 179.136 82.2726C178.675 81.7564 178.317 81.132 178.062 80.3993C177.812 79.6667 177.687 78.8397 177.687 77.9183V77.3438C177.687 76.4169 177.812 75.5899 178.062 74.8627C178.312 74.1301 178.664 73.5057 179.119 72.9895C179.58 72.4733 180.124 72.0792 180.751 71.8072C181.384 71.5352 182.08 71.3992 182.841 71.3992C183.607 71.3992 184.303 71.5352 184.931 71.8072C185.563 72.0792 186.107 72.4733 186.562 72.9895C187.023 73.5057 187.378 74.1301 187.628 74.8627C187.883 75.5899 188.011 76.4169 188.011 77.3438ZM185.488 77.9183V77.3271C185.488 76.6833 185.43 76.1171 185.314 75.6287C185.197 75.1403 185.025 74.7295 184.797 74.3965C184.57 74.0635 184.292 73.8137 183.965 73.6472C183.637 73.4751 183.263 73.3891 182.841 73.3891C182.419 73.3891 182.044 73.4751 181.717 73.6472C181.395 73.8137 181.12 74.0635 180.893 74.3965C180.671 74.7295 180.501 75.1403 180.385 75.6287C180.268 76.1171 180.21 76.6833 180.21 77.3271V77.9183C180.21 78.5566 180.268 79.1227 180.385 79.6167C180.501 80.1052 180.673 80.5187 180.901 80.8572C181.128 81.1903 181.406 81.4428 181.733 81.6149C182.061 81.787 182.436 81.873 182.857 81.873C183.279 81.873 183.654 81.787 183.981 81.6149C184.309 81.4428 184.584 81.1903 184.806 80.8572C185.028 80.5187 185.197 80.1052 185.314 79.6167C185.43 79.1227 185.488 78.5566 185.488 77.9183Z" fill="#171A1F"/>
<path fill-rule="evenodd" clip-rule="evenodd" d="M34.5303 73.4697C34.8232 73.7626 34.8232 74.2374 34.5303 74.5303L29.8107 79.25H44C44.4142 79.25 44.75 79.5858 44.75 80C44.75 80.4142 44.4142 80.75 44 80.75H29.8107L34.5303 85.4697C34.8232 85.7626 34.8232 86.2374 34.5303 86.5303C34.2374 86.8232 33.7626 86.8232 33.4697 86.5303L27.4697 80.5303C27.1768 80.2374 27.1768 79.7626 27.4697 79.4697L33.4697 73.4697C33.7626 73.1768 34.2374 73.1768 34.5303 73.4697Z" fill="#7B7B7B"/>
<path fill-rule="evenodd" clip-rule="evenodd" d="M379 89.75C377.481 89.75 376.25 88.5188 376.25 87C376.25 85.4812 377.481 84.25 379 84.25C380.519 84.25 381.75 85.4812 381.75 87C381.75 88.5188 380.519 89.75 379 89.75Z" fill="#171A1F"/>
<path fill-rule="evenodd" clip-rule="evenodd" d="M379 82.75C377.481 82.75 376.25 81.5188 376.25 80C376.25 78.4812 377.481 77.25 379 77.25C380.519 77.25 381.75 78.4812 381.75 80C381.75 81.5188 380.519 82.75 379 82.75Z" fill="#171A1F"/>
<path fill-rule="evenodd" clip-rule="evenodd" d="M376.25 73C376.25 74.5188 377.481 75.75 379 75.75C380.519 75.75 381.75 74.5188 381.75 73C381.75 71.4812 380.519 70.25 379 70.25C377.481 70.25 376.25 71.4812 376.25 73Z" fill="#171A1F"/>
<rect x="24" y="839" width="380" height="41" rx="20.5" fill="#F7F7F8"/>
<path d="M46.688 860.416C46.688 859.328 46.9333 858.352 47.424 857.488C47.9147 856.613 48.5813 855.931 49.424 855.44C50.2773 854.949 51.2213 854.704 52.256 854.704C53.472 854.704 54.5333 854.997 55.44 855.584C56.3467 856.171 57.008 857.003 57.424 858.08H55.68C55.3707 857.408 54.9227 856.891 54.336 856.528C53.76 856.165 53.0667 855.984 52.256 855.984C51.4773 855.984 50.7787 856.165 50.16 856.528C49.5413 856.891 49.056 857.408 48.704 858.08C48.352 858.741 48.176 859.52 48.176 860.416C48.176 861.301 48.352 862.08 48.704 862.752C49.056 863.413 49.5413 863.925 50.16 864.288C50.7787 864.651 51.4773 864.832 52.256 864.832C53.0667 864.832 53.76 864.656 54.336 864.304C54.9227 863.941 55.3707 863.424 55.68 862.752H57.424C57.008 863.819 56.3467 864.645 55.44 865.232C54.5333 865.808 53.472 866.096 52.256 866.096C51.2213 866.096 50.2773 865.856 49.424 865.376C48.5813 864.885 47.9147 864.208 47.424 863.344C46.9333 862.48 46.688 861.504 46.688 860.416ZM59.0474 861.584C59.0474 860.688 59.2287 859.904 59.5914 859.232C59.954 858.549 60.45 858.021 61.0794 857.648C61.7194 857.275 62.4287 857.088 63.2074 857.088C63.9754 857.088 64.642 857.253 65.2074 857.584C65.7727 857.915 66.194 858.331 66.4714 858.832V857.232H67.9434V866H66.4714V864.368C66.1834 864.88 65.7514 865.307 65.1754 865.648C64.61 865.979 63.9487 866.144 63.1914 866.144C62.4127 866.144 61.7087 865.952 61.0794 865.568C60.45 865.184 59.954 864.645 59.5914 863.952C59.2287 863.259 59.0474 862.469 59.0474 861.584ZM66.4714 861.6C66.4714 860.939 66.338 860.363 66.0714 859.872C65.8047 859.381 65.442 859.008 64.9834 858.752C64.5354 858.485 64.0394 858.352 63.4954 858.352C62.9514 858.352 62.4554 858.48 62.0074 858.736C61.5594 858.992 61.202 859.365 60.9354 859.856C60.6687 860.347 60.5354 860.923 60.5354 861.584C60.5354 862.256 60.6687 862.843 60.9354 863.344C61.202 863.835 61.5594 864.213 62.0074 864.48C62.4554 864.736 62.9514 864.864 63.4954 864.864C64.0394 864.864 64.5354 864.736 64.9834 864.48C65.442 864.213 65.8047 863.835 66.0714 863.344C66.338 862.843 66.4714 862.261 66.4714 861.6ZM74.6759 857.072C75.7425 857.072 76.6065 857.397 77.2679 858.048C77.9292 858.688 78.2599 859.616 78.2599 860.832V866H76.8199V861.04C76.8199 860.165 76.6012 859.499 76.1639 859.04C75.7265 858.571 75.1292 858.336 74.3719 858.336C73.6039 858.336 72.9905 858.576 72.5319 859.056C72.0839 859.536 71.8599 860.235 71.8599 861.152V866H70.4039V857.232H71.8599V858.48C72.1479 858.032 72.5372 857.685 73.0279 857.44C73.5292 857.195 74.0785 857.072 74.6759 857.072ZM80.8623 854.848H82.4783L80.9423 858.48H79.9183L80.8623 854.848ZM85.9143 858.432V863.6C85.9143 864.027 86.0049 864.331 86.1863 864.512C86.3676 864.683 86.6823 864.768 87.1302 864.768H88.2023V866H86.8903C86.0796 866 85.4716 865.813 85.0663 865.44C84.6609 865.067 84.4583 864.453 84.4583 863.6V858.432H83.3223V857.232H84.4583V855.024H85.9143V857.232H88.2023V858.432H85.9143ZM95.688 858.656C95.944 858.155 96.3067 857.765 96.776 857.488C97.256 857.211 97.8373 857.072 98.52 857.072V858.576H98.136C96.504 858.576 95.688 859.461 95.688 861.232V866H94.232V857.232H95.688V858.656ZM108.201 861.28C108.201 861.557 108.185 861.851 108.153 862.16H101.145C101.198 863.024 101.491 863.701 102.025 864.192C102.569 864.672 103.225 864.912 103.993 864.912C104.622 864.912 105.145 864.768 105.561 864.48C105.987 864.181 106.286 863.787 106.457 863.296H108.025C107.79 864.139 107.321 864.827 106.617 865.36C105.913 865.883 105.038 866.144 103.993 866.144C103.161 866.144 102.414 865.957 101.753 865.584C101.102 865.211 100.59 864.683 100.217 864C99.8434 863.307 99.6568 862.507 99.6568 861.6C99.6568 860.693 99.8381 859.899 100.201 859.216C100.563 858.533 101.07 858.011 101.721 857.648C102.382 857.275 103.139 857.088 103.993 857.088C104.825 857.088 105.561 857.269 106.201 857.632C106.841 857.995 107.331 858.496 107.673 859.136C108.025 859.765 108.201 860.48 108.201 861.28ZM106.697 860.976C106.697 860.421 106.574 859.947 106.329 859.552C106.083 859.147 105.747 858.843 105.321 858.64C104.905 858.427 104.441 858.32 103.929 858.32C103.193 858.32 102.563 858.555 102.041 859.024C101.529 859.493 101.235 860.144 101.161 860.976H106.697ZM111.579 858.848C111.867 858.347 112.293 857.931 112.859 857.6C113.435 857.259 114.101 857.088 114.859 857.088C115.637 857.088 116.341 857.275 116.971 857.648C117.611 858.021 118.112 858.549 118.475 859.232C118.837 859.904 119.019 860.688 119.019 861.584C119.019 862.469 118.837 863.259 118.475 863.952C118.112 864.645 117.611 865.184 116.971 865.568C116.341 865.952 115.637 866.144 114.859 866.144C114.112 866.144 113.451 865.979 112.875 865.648C112.309 865.307 111.877 864.885 111.579 864.384V870.16H110.123V857.232H111.579V858.848ZM117.531 861.584C117.531 860.923 117.397 860.347 117.131 859.856C116.864 859.365 116.501 858.992 116.043 858.736C115.595 858.48 115.099 858.352 114.555 858.352C114.021 858.352 113.525 858.485 113.067 858.752C112.619 859.008 112.256 859.387 111.979 859.888C111.712 860.379 111.579 860.949 111.579 861.6C111.579 862.261 111.712 862.843 111.979 863.344C112.256 863.835 112.619 864.213 113.067 864.48C113.525 864.736 114.021 864.864 114.555 864.864C115.099 864.864 115.595 864.736 116.043 864.48C116.501 864.213 116.864 863.835 117.131 863.344C117.397 862.843 117.531 862.256 117.531 861.584ZM122.391 854.16V866H120.935V854.16H122.391ZM132.425 857.232L127.145 870.128H125.641L127.369 865.904L123.833 857.232H125.449L128.201 864.336L130.921 857.232H132.425ZM139.93 858.432V863.6C139.93 864.027 140.021 864.331 140.202 864.512C140.383 864.683 140.698 864.768 141.146 864.768H142.218V866H140.906C140.095 866 139.487 865.813 139.082 865.44C138.677 865.067 138.474 864.453 138.474 863.6V858.432H137.338V857.232H138.474V855.024H139.93V857.232H142.218V858.432H139.93ZM147.806 866.144C146.985 866.144 146.238 865.957 145.566 865.584C144.905 865.211 144.382 864.683 143.998 864C143.625 863.307 143.438 862.507 143.438 861.6C143.438 860.704 143.63 859.915 144.014 859.232C144.409 858.539 144.942 858.011 145.614 857.648C146.286 857.275 147.038 857.088 147.87 857.088C148.702 857.088 149.454 857.275 150.126 857.648C150.798 858.011 151.326 858.533 151.71 859.216C152.105 859.899 152.302 860.693 152.302 861.6C152.302 862.507 152.099 863.307 151.694 864C151.299 864.683 150.761 865.211 150.078 865.584C149.395 865.957 148.638 866.144 147.806 866.144ZM147.806 864.864C148.329 864.864 148.819 864.741 149.278 864.496C149.737 864.251 150.105 863.883 150.382 863.392C150.67 862.901 150.814 862.304 150.814 861.6C150.814 860.896 150.675 860.299 150.398 859.808C150.121 859.317 149.758 858.955 149.31 858.72C148.862 858.475 148.377 858.352 147.854 858.352C147.321 858.352 146.83 858.475 146.382 858.72C145.945 858.955 145.593 859.317 145.326 859.808C145.059 860.299 144.926 860.896 144.926 861.6C144.926 862.315 145.054 862.917 145.31 863.408C145.577 863.899 145.929 864.267 146.366 864.512C146.803 864.747 147.283 864.864 147.806 864.864ZM160.258 858.432V863.6C160.258 864.027 160.349 864.331 160.53 864.512C160.711 864.683 161.026 864.768 161.474 864.768H162.546V866H161.234C160.423 866 159.815 865.813 159.41 865.44C159.005 865.067 158.802 864.453 158.802 863.6V858.432H157.666V857.232H158.802V855.024H160.258V857.232H162.546V858.432H160.258ZM168.662 857.072C169.323 857.072 169.921 857.216 170.454 857.504C170.987 857.781 171.403 858.203 171.702 858.768C172.011 859.333 172.166 860.021 172.166 860.832V866H170.726V861.04C170.726 860.165 170.507 859.499 170.07 859.04C169.633 858.571 169.035 858.336 168.278 858.336C167.51 858.336 166.897 858.576 166.438 859.056C165.99 859.536 165.766 860.235 165.766 861.152V866H164.31V854.16H165.766V858.48C166.054 858.032 166.449 857.685 166.95 857.44C167.462 857.195 168.033 857.072 168.662 857.072ZM175.297 855.808C175.019 855.808 174.785 855.712 174.593 855.52C174.401 855.328 174.305 855.093 174.305 854.816C174.305 854.539 174.401 854.304 174.593 854.112C174.785 853.92 175.019 853.824 175.297 853.824C175.563 853.824 175.787 853.92 175.969 854.112C176.161 854.304 176.257 854.539 176.257 854.816C176.257 855.093 176.161 855.328 175.969 855.52C175.787 855.712 175.563 855.808 175.297 855.808ZM176.001 857.232V866H174.545V857.232H176.001ZM181.586 866.144C180.914 866.144 180.311 866.032 179.778 865.808C179.245 865.573 178.823 865.253 178.514 864.848C178.205 864.432 178.034 863.957 178.002 863.424H179.506C179.549 863.861 179.751 864.219 180.114 864.496C180.487 864.773 180.973 864.912 181.57 864.912C182.125 864.912 182.562 864.789 182.882 864.544C183.202 864.299 183.362 863.989 183.362 863.616C183.362 863.232 183.191 862.949 182.85 862.768C182.509 862.576 181.981 862.389 181.266 862.208C180.615 862.037 180.082 861.867 179.666 861.696C179.261 861.515 178.909 861.253 178.61 860.912C178.322 860.56 178.178 860.101 178.178 859.536C178.178 859.088 178.311 858.677 178.578 858.304C178.845 857.931 179.223 857.637 179.714 857.424C180.205 857.2 180.765 857.088 181.394 857.088C182.365 857.088 183.149 857.333 183.746 857.824C184.343 858.315 184.663 858.987 184.706 859.84H183.25C183.218 859.381 183.031 859.013 182.69 858.736C182.359 858.459 181.911 858.32 181.346 858.32C180.823 858.32 180.407 858.432 180.098 858.656C179.789 858.88 179.634 859.173 179.634 859.536C179.634 859.824 179.725 860.064 179.906 860.256C180.098 860.437 180.333 860.587 180.61 860.704C180.898 860.811 181.293 860.933 181.794 861.072C182.423 861.243 182.935 861.413 183.33 861.584C183.725 861.744 184.061 861.989 184.338 862.32C184.626 862.651 184.775 863.083 184.786 863.616C184.786 864.096 184.653 864.528 184.386 864.912C184.119 865.296 183.741 865.6 183.25 865.824C182.77 866.037 182.215 866.144 181.586 866.144ZM198.477 866.144C197.805 866.144 197.202 866.032 196.669 865.808C196.135 865.573 195.714 865.253 195.405 864.848C195.095 864.432 194.925 863.957 194.893 863.424H196.397C196.439 863.861 196.642 864.219 197.005 864.496C197.378 864.773 197.863 864.912 198.461 864.912C199.015 864.912 199.453 864.789 199.773 864.544C200.093 864.299 200.253 863.989 200.253 863.616C200.253 863.232 200.082 862.949 199.741 862.768C199.399 862.576 198.871 862.389 198.157 862.208C197.506 862.037 196.973 861.867 196.557 861.696C196.151 861.515 195.799 861.253 195.501 860.912C195.213 860.56 195.069 860.101 195.069 859.536C195.069 859.088 195.202 858.677 195.469 858.304C195.735 857.931 196.114 857.637 196.605 857.424C197.095 857.2 197.655 857.088 198.285 857.088C199.255 857.088 200.039 857.333 200.637 857.824C201.234 858.315 201.554 858.987 201.597 859.84H200.141C200.109 859.381 199.922 859.013 199.581 858.736C199.25 858.459 198.802 858.32 198.237 858.32C197.714 858.32 197.298 858.432 196.989 858.656C196.679 858.88 196.525 859.173 196.525 859.536C196.525 859.824 196.615 860.064 196.797 860.256C196.989 860.437 197.223 860.587 197.501 860.704C197.789 860.811 198.183 860.933 198.685 861.072C199.314 861.243 199.826 861.413 200.221 861.584C200.615 861.744 200.951 861.989 201.229 862.32C201.517 862.651 201.666 863.083 201.677 863.616C201.677 864.096 201.543 864.528 201.277 864.912C201.01 865.296 200.631 865.6 200.141 865.824C199.661 866.037 199.106 866.144 198.477 866.144ZM208.084 857.072C208.745 857.072 209.343 857.216 209.876 857.504C210.409 857.781 210.825 858.203 211.124 858.768C211.433 859.333 211.588 860.021 211.588 860.832V866H210.148V861.04C210.148 860.165 209.929 859.499 209.492 859.04C209.055 858.571 208.457 858.336 207.7 858.336C206.932 858.336 206.319 858.576 205.86 859.056C205.412 859.536 205.188 860.235 205.188 861.152V866H203.732V854.16H205.188V858.48C205.476 858.032 205.871 857.685 206.372 857.44C206.884 857.195 207.455 857.072 208.084 857.072ZM217.79 866.144C216.969 866.144 216.222 865.957 215.55 865.584C214.889 865.211 214.366 864.683 213.982 864C213.609 863.307 213.422 862.507 213.422 861.6C213.422 860.704 213.614 859.915 213.998 859.232C214.393 858.539 214.926 858.011 215.598 857.648C216.27 857.275 217.022 857.088 217.854 857.088C218.686 857.088 219.438 857.275 220.11 857.648C220.782 858.011 221.31 858.533 221.694 859.216C222.089 859.899 222.286 860.693 222.286 861.6C222.286 862.507 222.084 863.307 221.678 864C221.284 864.683 220.745 865.211 220.062 865.584C219.38 865.957 218.622 866.144 217.79 866.144ZM217.79 864.864C218.313 864.864 218.804 864.741 219.262 864.496C219.721 864.251 220.089 863.883 220.366 863.392C220.654 862.901 220.798 862.304 220.798 861.6C220.798 860.896 220.66 860.299 220.382 859.808C220.105 859.317 219.742 858.955 219.294 858.72C218.846 858.475 218.361 858.352 217.838 858.352C217.305 858.352 216.814 858.475 216.366 858.72C215.929 858.955 215.577 859.317 215.31 859.808C215.044 860.299 214.91 860.896 214.91 861.6C214.91 862.315 215.038 862.917 215.294 863.408C215.561 863.899 215.913 864.267 216.35 864.512C216.788 864.747 217.268 864.864 217.79 864.864ZM225.657 858.656C225.913 858.155 226.275 857.765 226.745 857.488C227.225 857.211 227.806 857.072 228.489 857.072V858.576H228.105C226.473 858.576 225.657 859.461 225.657 861.232V866H224.201V857.232H225.657V858.656ZM231.946 858.432V863.6C231.946 864.027 232.036 864.331 232.218 864.512C232.399 864.683 232.714 864.768 233.161 864.768H234.234V866H232.922C232.111 866 231.503 865.813 231.098 865.44C230.692 865.067 230.49 864.453 230.49 863.6V858.432H229.354V857.232H230.49V855.024H231.946V857.232H234.234V858.432H231.946ZM239.719 861.6C239.719 860.693 239.901 859.904 240.263 859.232C240.626 858.549 241.127 858.021 241.767 857.648C242.418 857.275 243.159 857.088 243.991 857.088C245.069 857.088 245.954 857.349 246.647 857.872C247.351 858.395 247.815 859.12 248.039 860.048H246.471C246.322 859.515 246.029 859.093 245.591 858.784C245.165 858.475 244.631 858.32 243.991 858.32C243.159 858.32 242.487 858.608 241.975 859.184C241.463 859.749 241.207 860.555 241.207 861.6C241.207 862.656 241.463 863.472 241.975 864.048C242.487 864.624 243.159 864.912 243.991 864.912C244.631 864.912 245.165 864.763 245.591 864.464C246.018 864.165 246.311 863.739 246.471 863.184H248.039C247.805 864.08 247.335 864.8 246.631 865.344C245.927 865.877 245.047 866.144 243.991 866.144C243.159 866.144 242.418 865.957 241.767 865.584C241.127 865.211 240.626 864.683 240.263 864C239.901 863.317 239.719 862.517 239.719 861.6ZM253.806 866.144C252.985 866.144 252.238 865.957 251.566 865.584C250.905 865.211 250.382 864.683 249.998 864C249.625 863.307 249.438 862.507 249.438 861.6C249.438 860.704 249.63 859.915 250.014 859.232C250.409 858.539 250.942 858.011 251.614 857.648C252.286 857.275 253.038 857.088 253.87 857.088C254.702 857.088 255.454 857.275 256.126 857.648C256.798 858.011 257.326 858.533 257.71 859.216C258.105 859.899 258.302 860.693 258.302 861.6C258.302 862.507 258.099 863.307 257.694 864C257.299 864.683 256.761 865.211 256.078 865.584C255.395 865.957 254.638 866.144 253.806 866.144ZM253.806 864.864C254.329 864.864 254.819 864.741 255.278 864.496C255.737 864.251 256.105 863.883 256.382 863.392C256.67 862.901 256.814 862.304 256.814 861.6C256.814 860.896 256.675 860.299 256.398 859.808C256.121 859.317 255.758 858.955 255.31 858.72C254.862 858.475 254.377 858.352 253.854 858.352C253.321 858.352 252.83 858.475 252.382 858.72C251.945 858.955 251.593 859.317 251.326 859.808C251.059 860.299 250.926 860.896 250.926 861.6C250.926 862.315 251.054 862.917 251.31 863.408C251.577 863.899 251.929 864.267 252.366 864.512C252.803 864.747 253.283 864.864 253.806 864.864ZM259.672 861.584C259.672 860.688 259.854 859.904 260.216 859.232C260.579 858.549 261.075 858.021 261.704 857.648C262.344 857.275 263.059 857.088 263.848 857.088C264.531 857.088 265.166 857.248 265.752 857.568C266.339 857.877 266.787 858.288 267.096 858.8V854.16H268.568V866H267.096V864.352C266.808 864.875 266.382 865.307 265.816 865.648C265.251 865.979 264.59 866.144 263.832 866.144C263.054 866.144 262.344 865.952 261.704 865.568C261.075 865.184 260.579 864.645 260.216 863.952C259.854 863.259 259.672 862.469 259.672 861.584ZM267.096 861.6C267.096 860.939 266.963 860.363 266.696 859.872C266.43 859.381 266.067 859.008 265.608 858.752C265.16 858.485 264.664 858.352 264.12 858.352C263.576 858.352 263.08 858.48 262.632 858.736C262.184 858.992 261.827 859.365 261.56 859.856C261.294 860.347 261.16 860.923 261.16 861.584C261.16 862.256 261.294 862.843 261.56 863.344C261.827 863.835 262.184 864.213 262.632 864.48C263.08 864.736 263.576 864.864 264.12 864.864C264.664 864.864 265.16 864.736 265.608 864.48C266.067 864.213 266.43 863.835 266.696 863.344C266.963 862.843 267.096 862.261 267.096 861.6ZM279.029 861.28C279.029 861.557 279.013 861.851 278.981 862.16H271.973C272.026 863.024 272.32 863.701 272.853 864.192C273.397 864.672 274.053 864.912 274.821 864.912C275.45 864.912 275.973 864.768 276.389 864.48C276.816 864.181 277.114 863.787 277.285 863.296H278.853C278.618 864.139 278.149 864.827 277.445 865.36C276.741 865.883 275.866 866.144 274.821 866.144C273.989 866.144 273.242 865.957 272.581 865.584C271.93 865.211 271.418 864.683 271.045 864C270.672 863.307 270.485 862.507 270.485 861.6C270.485 860.693 270.666 859.899 271.029 859.216C271.392 858.533 271.898 858.011 272.549 857.648C273.21 857.275 273.968 857.088 274.821 857.088C275.653 857.088 276.389 857.269 277.029 857.632C277.669 857.995 278.16 858.496 278.501 859.136C278.853 859.765 279.029 860.48 279.029 861.28ZM277.525 860.976C277.525 860.421 277.402 859.947 277.157 859.552C276.912 859.147 276.576 858.843 276.149 858.64C275.733 858.427 275.269 858.32 274.757 858.32C274.021 858.32 273.392 858.555 272.869 859.024C272.357 859.493 272.064 860.144 271.989 860.976H277.525ZM281.415 866.096C281.137 866.096 280.903 866 280.711 865.808C280.519 865.616 280.423 865.381 280.423 865.104C280.423 864.827 280.519 864.592 280.711 864.4C280.903 864.208 281.137 864.112 281.415 864.112C281.681 864.112 281.905 864.208 282.087 864.4C282.279 864.592 282.375 864.827 282.375 865.104C282.375 865.381 282.279 865.616 282.087 865.808C281.905 866 281.681 866.096 281.415 866.096ZM290.032 864.816H293.936V866H288.576V854.848H290.032V864.816ZM303.482 861.28C303.482 861.557 303.466 861.851 303.434 862.16H296.426C296.479 863.024 296.773 863.701 297.306 864.192C297.85 864.672 298.506 864.912 299.274 864.912C299.903 864.912 300.426 864.768 300.842 864.48C301.269 864.181 301.567 863.787 301.738 863.296H303.306C303.071 864.139 302.602 864.827 301.898 865.36C301.194 865.883 300.319 866.144 299.274 866.144C298.442 866.144 297.695 865.957 297.034 865.584C296.383 865.211 295.871 864.683 295.498 864C295.125 863.307 294.938 862.507 294.938 861.6C294.938 860.693 295.119 859.899 295.482 859.216C295.845 858.533 296.351 858.011 297.002 857.648C297.663 857.275 298.421 857.088 299.274 857.088C300.106 857.088 300.842 857.269 301.482 857.632C302.122 857.995 302.613 858.496 302.954 859.136C303.306 859.765 303.482 860.48 303.482 861.28ZM301.978 860.976C301.978 860.421 301.855 859.947 301.61 859.552C301.365 859.147 301.029 858.843 300.602 858.64C300.186 858.427 299.722 858.32 299.21 858.32C298.474 858.32 297.845 858.555 297.322 859.024C296.81 859.493 296.517 860.144 296.442 860.976H301.978ZM304.86 861.584C304.86 860.688 305.041 859.904 305.404 859.232C305.767 858.549 306.263 858.021 306.892 857.648C307.532 857.275 308.241 857.088 309.02 857.088C309.788 857.088 310.455 857.253 311.02 857.584C311.585 857.915 312.007 858.331 312.284 858.832V857.232H313.756V866H312.284V864.368C311.996 864.88 311.564 865.307 310.988 865.648C310.423 865.979 309.761 866.144 309.004 866.144C308.225 866.144 307.521 865.952 306.892 865.568C306.263 865.184 305.767 864.645 305.404 863.952C305.041 863.259 304.86 862.469 304.86 861.584ZM312.284 861.6C312.284 860.939 312.151 860.363 311.884 859.872C311.617 859.381 311.255 859.008 310.796 858.752C310.348 858.485 309.852 858.352 309.308 858.352C308.764 858.352 308.268 858.48 307.82 858.736C307.372 858.992 307.015 859.365 306.748 859.856C306.481 860.347 306.348 860.923 306.348 861.584C306.348 862.256 306.481 862.843 306.748 863.344C307.015 863.835 307.372 864.213 307.82 864.48C308.268 864.736 308.764 864.864 309.308 864.864C309.852 864.864 310.348 864.736 310.796 864.48C311.255 864.213 311.617 863.835 311.884 863.344C312.151 862.843 312.284 862.261 312.284 861.6ZM317.672 858.656C317.928 858.155 318.291 857.765 318.76 857.488C319.24 857.211 319.822 857.072 320.504 857.072V858.576H320.12C318.488 858.576 317.672 859.461 317.672 861.232V866H316.216V857.232H317.672V858.656ZM326.457 857.072C327.524 857.072 328.388 857.397 329.049 858.048C329.71 858.688 330.041 859.616 330.041 860.832V866H328.601V861.04C328.601 860.165 328.382 859.499 327.945 859.04C327.508 858.571 326.91 858.336 326.153 858.336C325.385 858.336 324.772 858.576 324.313 859.056C323.865 859.536 323.641 860.235 323.641 861.152V866H322.185V857.232H323.641V858.48C323.929 858.032 324.318 857.685 324.809 857.44C325.31 857.195 325.86 857.072 326.457 857.072ZM347.229 857.072C347.912 857.072 348.52 857.216 349.053 857.504C349.586 857.781 350.008 858.203 350.317 858.768C350.626 859.333 350.781 860.021 350.781 860.832V866H349.341V861.04C349.341 860.165 349.122 859.499 348.685 859.04C348.258 858.571 347.677 858.336 346.941 858.336C346.184 858.336 345.581 858.581 345.133 859.072C344.685 859.552 344.461 860.251 344.461 861.168V866H343.021V861.04C343.021 860.165 342.802 859.499 342.365 859.04C341.938 858.571 341.357 858.336 340.621 858.336C339.864 858.336 339.261 858.581 338.813 859.072C338.365 859.552 338.141 860.251 338.141 861.168V866H336.685V857.232H338.141V858.496C338.429 858.037 338.813 857.685 339.293 857.44C339.784 857.195 340.322 857.072 340.909 857.072C341.645 857.072 342.296 857.237 342.861 857.568C343.426 857.899 343.848 858.384 344.125 859.024C344.37 858.405 344.776 857.925 345.341 857.584C345.906 857.243 346.536 857.072 347.229 857.072ZM356.994 866.144C356.172 866.144 355.426 865.957 354.754 865.584C354.092 865.211 353.57 864.683 353.186 864C352.812 863.307 352.626 862.507 352.626 861.6C352.626 860.704 352.818 859.915 353.202 859.232C353.596 858.539 354.13 858.011 354.802 857.648C355.474 857.275 356.226 857.088 357.058 857.088C357.89 857.088 358.642 857.275 359.314 857.648C359.986 858.011 360.514 858.533 360.898 859.216C361.292 859.899 361.49 860.693 361.49 861.6C361.49 862.507 361.287 863.307 360.882 864C360.487 864.683 359.948 865.211 359.266 865.584C358.583 865.957 357.826 866.144 356.994 866.144ZM356.994 864.864C357.516 864.864 358.007 864.741 358.466 864.496C358.924 864.251 359.292 863.883 359.57 863.392C359.858 862.901 360.002 862.304 360.002 861.6C360.002 860.896 359.863 860.299 359.586 859.808C359.308 859.317 358.946 858.955 358.498 858.72C358.05 858.475 357.564 858.352 357.042 858.352C356.508 858.352 356.018 858.475 355.57 858.72C355.132 858.955 354.78 859.317 354.514 859.808C354.247 860.299 354.114 860.896 354.114 861.6C354.114 862.315 354.242 862.917 354.498 863.408C354.764 863.899 355.116 864.267 355.554 864.512C355.991 864.747 356.471 864.864 356.994 864.864ZM364.86 858.656C365.116 858.155 365.479 857.765 365.948 857.488C366.428 857.211 367.009 857.072 367.692 857.072V858.576H367.308C365.676 858.576 364.86 859.461 364.86 861.232V866H363.404V857.232H364.86V858.656ZM377.373 861.28C377.373 861.557 377.357 861.851 377.325 862.16H370.317C370.37 863.024 370.663 863.701 371.197 864.192C371.741 864.672 372.397 864.912 373.165 864.912C373.794 864.912 374.317 864.768 374.733 864.48C375.159 864.181 375.458 863.787 375.629 863.296H377.197C376.962 864.139 376.493 864.827 375.789 865.36C375.085 865.883 374.21 866.144 373.165 866.144C372.333 866.144 371.586 865.957 370.925 865.584C370.274 865.211 369.762 864.683 369.389 864C369.015 863.307 368.829 862.507 368.829 861.6C368.829 860.693 369.01 859.899 369.373 859.216C369.735 858.533 370.242 858.011 370.893 857.648C371.554 857.275 372.311 857.088 373.165 857.088C373.997 857.088 374.733 857.269 375.373 857.632C376.013 857.995 376.503 858.496 376.845 859.136C377.197 859.765 377.373 860.48 377.373 861.28ZM375.869 860.976C375.869 860.421 375.746 859.947 375.501 859.552C375.255 859.147 374.919 858.843 374.493 858.64C374.077 858.427 373.613 858.32 373.101 858.32C372.365 858.32 371.735 858.555 371.213 859.024C370.701 859.493 370.407 860.144 370.333 860.976H375.869Z" fill="#768289"/>
<path d="M287.344 867.6H378.061V868.4H287.344V867.6Z" fill="#768289"/>
<circle cx="74" cy="80" r="20" fill="black"/>
<path d="M82.5776 86.9993H65.424C65.1896 86.9993 65 86.8106 65 86.5774C65 84.7587 65.5588 83.2534 66.4809 82.0633C67.5077 80.7388 68.9822 79.8163 70.6317 79.2947C70.7759 79.2495 70.9266 79.2846 71.0341 79.3764L71.0348 79.3757C71.4083 79.6943 71.864 79.9518 72.3759 80.1291C72.8705 80.3005 73.4199 80.3952 74.0003 80.3952C74.5814 80.3952 75.1308 80.3005 75.6247 80.1291C76.1367 79.9518 76.5923 79.6943 76.9658 79.3757C77.0884 79.2717 77.2535 79.2487 77.3941 79.3033C79.0337 79.827 80.498 80.7461 81.5191 82.064C82.4419 83.2535 83 84.7587 83 86.5781C83 86.8113 82.8104 87 82.576 87L82.5776 86.9993ZM77.4446 77.2743C76.5628 78.1517 75.345 78.6941 74.0004 78.6941C72.6557 78.6941 71.4379 78.1517 70.5562 77.2743C69.6744 76.3969 69.13 75.1851 69.13 73.8471C69.13 72.5091 69.6751 71.2972 70.5562 70.4198C71.4379 69.5424 72.6557 69 74.0004 69C75.345 69 76.5629 69.5424 77.4446 70.4198C78.3264 71.2973 78.8715 72.5091 78.8715 73.8471C78.8715 75.1851 78.3264 76.3969 77.4446 77.2743Z" fill="white"/>
</g>
<rect x="2" y="2" width="424" height="922" rx="38" stroke="black" stroke-width="4"/>
<defs>
<clipPath id="clip0_1476_4958">
<rect width="428" height="926" rx="40" fill="white"/>
</clipPath>
<clipPath id="clip1_1476_4958">
<rect width="19.0311" height="17.7623" fill="white" transform="translate(293 26.1251)"/>
</clipPath>
</defs>
</svg>
