<svg width="37" height="32" viewBox="0 0 37 32" fill="none" xmlns="http://www.w3.org/2000/svg">
<circle cx="24.554" cy="19.0003" r="12.3333" fill="#AF1529" fill-opacity="0.2"/>
<path d="M28.7296 24.3535C28.7296 22.8581 27.6296 21.6128 26.1983 21.3894V14.4017C26.1983 12.6939 25.8295 11.0735 25.1748 9.60963C26.3264 8.8221 27.0827 7.5018 27.0827 6.00491C27.0827 3.60488 25.1311 1.64846 22.7262 1.64846C21.2184 1.64846 19.8855 2.42035 19.1027 3.59224C18.6262 3.38443 18.1308 3.20786 17.623 3.06411C17.5434 1.35942 16.1355 0 14.4152 0C12.6949 0 11.2871 1.35938 11.2074 3.06411C6.26372 4.46413 2.63088 9.01258 2.63088 14.3954V21.3875C1.19962 21.611 0.0996094 22.8563 0.0996094 24.3516C0.0996094 26.0079 1.44338 27.3563 3.09964 27.3563H9.21211C9.50743 29.9689 11.7278 32 14.417 32C17.1045 32 19.325 29.9687 19.6218 27.3563H25.7343C27.3906 27.3563 28.7343 26.0079 28.7343 24.3516L28.7296 24.3535ZM22.7263 2.85003C24.467 2.85003 25.8826 4.26569 25.8826 6.00631C25.8826 7.74697 24.4669 9.16258 22.7263 9.16258C20.9857 9.16258 19.57 7.74693 19.57 6.00631C19.57 4.26565 20.9857 2.85003 22.7263 2.85003ZM14.4138 1.20157C15.3779 1.20157 16.1826 1.88126 16.3826 2.78595C15.7419 2.67814 15.0873 2.6172 14.4138 2.6172C13.7419 2.6172 13.0857 2.67657 12.445 2.78595C12.645 1.88126 13.4497 1.20157 14.4138 1.20157ZM14.4138 30.8019C12.3903 30.8019 10.7091 29.3066 10.4216 27.3581H18.4061C18.1186 29.3066 16.4373 30.8019 14.4138 30.8019ZM3.09808 26.1583C2.10587 26.1583 1.29806 25.3504 1.29806 24.3536C1.29806 23.3582 2.10587 22.5535 3.09808 22.5535H3.82933V14.397C3.82933 8.56578 8.57778 3.81732 14.4138 3.81732C15.8935 3.81732 17.3014 4.12201 18.5827 4.67357C18.4468 5.0939 18.3702 5.54234 18.3702 6.00483C18.3702 8.40953 20.3265 10.3613 22.7266 10.3613C23.2063 10.3613 23.6673 10.2816 24.0985 10.1378C24.6751 11.4425 24.9985 12.8863 24.9985 14.4019V22.5536H25.7298C26.722 22.5536 27.5298 23.3614 27.5298 24.3536C27.5298 25.3458 26.722 26.1583 25.7298 26.1583L3.09808 26.1583Z" fill="#AF1529"/>
</svg>
