<svg width="45" height="32" viewBox="0 0 45 32" fill="none" xmlns="http://www.w3.org/2000/svg">
<circle cx="30.1264" cy="17.9047" r="14.0952" fill="#FFA914" fill-opacity="0.2"/>
<path d="M32.4042 0H4.36626C3.2334 0.00306655 2.148 0.455328 1.34815 1.25758C0.548292 2.05984 0.0992841 3.14658 0.099611 4.27945V30.4761C0.0991857 30.7356 0.181631 30.9886 0.334943 31.198C0.488256 31.4075 0.704429 31.5626 0.951988 31.6406C1.19955 31.7187 1.46557 31.7157 1.71131 31.6321C1.95706 31.5485 2.16969 31.3886 2.31827 31.1758L6.14728 25.6864H32.4042C33.5371 25.6834 34.6225 25.2311 35.4223 24.4289C36.2222 23.6266 36.6712 22.5399 36.6709 21.407V4.27945C36.6712 3.14658 36.2222 2.05984 35.4223 1.25758C34.6225 0.455328 33.5371 0.00306655 32.4042 0ZM35.4518 21.4039C35.4527 22.2136 35.1322 22.9906 34.5609 23.5644C33.9895 24.1381 33.2139 24.4618 32.4042 24.4644H5.82911C5.731 24.4643 5.63434 24.4879 5.54732 24.5333C5.46031 24.5786 5.38552 24.6442 5.3293 24.7246L1.31865 30.4761V4.27945C1.31784 3.46975 1.63826 2.69279 2.20961 2.11904C2.78095 1.5453 3.55656 1.22162 4.36626 1.21904H32.4042C33.2139 1.22162 33.9895 1.5453 34.5609 2.11904C35.1322 2.69279 35.4527 3.46975 35.4518 4.27945V21.4039Z" fill="#FFA914"/>
<path d="M26.2138 11.554C26.1792 11.2466 26.0363 11.0085 25.7852 10.8397C25.5342 10.6687 25.2181 10.5832 24.8372 10.5832C24.5645 10.5832 24.3285 10.6265 24.1294 10.7131C23.9303 10.7975 23.7755 10.9144 23.6651 11.0637C23.5569 11.2109 23.5028 11.3786 23.5028 11.567C23.5028 11.725 23.5396 11.8613 23.6132 11.976C23.6889 12.0908 23.7874 12.1871 23.9086 12.265C24.032 12.3408 24.164 12.4046 24.3047 12.4566C24.4454 12.5063 24.5807 12.5475 24.7106 12.5799L25.3599 12.7488C25.572 12.8007 25.7896 12.8711 26.0125 12.9598C26.2355 13.0485 26.4422 13.1654 26.6326 13.3104C26.8231 13.4555 26.9768 13.6351 27.0937 13.8494C27.2127 14.0637 27.2722 14.3202 27.2722 14.6189C27.2722 14.9955 27.1748 15.3299 26.98 15.6221C26.7874 15.9143 26.5071 16.1449 26.1391 16.3137C25.7733 16.4825 25.3307 16.5669 24.8112 16.5669C24.3134 16.5669 23.8827 16.4879 23.519 16.3299C23.1554 16.1719 22.8708 15.9479 22.6651 15.6578C22.4595 15.3656 22.3459 15.0193 22.3242 14.6189H23.3307C23.3502 14.8591 23.4281 15.0594 23.5645 15.2195C23.703 15.3775 23.8794 15.4955 24.0937 15.5734C24.3101 15.6492 24.5472 15.6871 24.8047 15.6871C25.0883 15.6871 25.3404 15.6427 25.5612 15.5539C25.7842 15.463 25.9595 15.3375 26.0872 15.1773C26.2149 15.015 26.2787 14.8256 26.2787 14.6091C26.2787 14.4122 26.2225 14.2509 26.1099 14.1254C25.9995 13.9998 25.8491 13.8959 25.6586 13.8137C25.4703 13.7314 25.2571 13.6589 25.019 13.5962L24.2333 13.3819C23.7008 13.2369 23.2788 13.0237 22.9671 12.7423C22.6576 12.4609 22.5028 12.0886 22.5028 11.6254C22.5028 11.2423 22.6067 10.9079 22.8145 10.6221C23.0223 10.3364 23.3037 10.1146 23.6586 9.95657C24.0136 9.79639 24.414 9.71631 24.8599 9.71631C25.3101 9.71631 25.7073 9.79531 26.0515 9.95332C26.3978 10.1113 26.6705 10.3289 26.8697 10.6059C27.0688 10.8808 27.1727 11.1968 27.1813 11.554H26.2138Z" fill="#FFA914"/>
<path d="M21.3893 11.9695H20.3763C20.3374 11.7531 20.2649 11.5626 20.1588 11.3981C20.0528 11.2336 19.9229 11.094 19.7692 10.9793C19.6155 10.8646 19.4435 10.778 19.253 10.7196C19.0647 10.6611 18.8645 10.6319 18.6523 10.6319C18.2692 10.6319 17.9261 10.7282 17.6231 10.9208C17.3222 11.1135 17.0842 11.396 16.9088 11.7682C16.7357 12.1405 16.6491 12.5951 16.6491 13.1319C16.6491 13.673 16.7357 14.1297 16.9088 14.502C17.0842 14.8743 17.3233 15.1557 17.6264 15.3462C17.9294 15.5366 18.2703 15.6319 18.6491 15.6319C18.859 15.6319 19.0582 15.6037 19.2465 15.5475C19.437 15.489 19.609 15.4035 19.7627 15.291C19.9164 15.1784 20.0463 15.041 20.1523 14.8786C20.2605 14.7141 20.3352 14.5258 20.3763 14.3137L21.3893 14.3169C21.3352 14.6438 21.2302 14.9446 21.0744 15.2195C20.9207 15.4923 20.7227 15.7282 20.4802 15.9273C20.24 16.1243 19.9651 16.2769 19.6556 16.3851C19.3461 16.4933 19.0084 16.5474 18.6426 16.5474C18.0668 16.5474 17.5539 16.4111 17.1036 16.1384C16.6534 15.8635 16.2984 15.4706 16.0387 14.9598C15.7811 14.449 15.6523 13.8397 15.6523 13.1319C15.6523 12.4219 15.7822 11.8126 16.042 11.304C16.3017 10.7931 16.6567 10.4014 17.1069 10.1286C17.5571 9.85375 18.069 9.71631 18.6426 9.71631C18.9954 9.71631 19.3244 9.76717 19.6296 9.86891C19.937 9.96847 20.2129 10.1157 20.4575 10.3105C20.7021 10.5031 20.9045 10.739 21.0647 11.0183C21.2248 11.2953 21.3331 11.6124 21.3893 11.9695Z" fill="#FFA914"/>
<path d="M9.97266 16.456V9.80664H12.3428C12.8579 9.80664 13.2854 9.89538 13.6252 10.0729C13.9672 10.2504 14.2226 10.496 14.3915 10.8099C14.5603 11.1216 14.6447 11.482 14.6447 11.891C14.6447 12.298 14.5592 12.6562 14.3882 12.9657C14.2194 13.2731 13.964 13.5123 13.622 13.6832C13.2822 13.8542 12.8547 13.9397 12.3395 13.9397H10.5441V13.0761H12.2486C12.5733 13.0761 12.8374 13.0296 13.0408 12.9365C13.2465 12.8434 13.3969 12.7081 13.4921 12.5307C13.5874 12.3532 13.635 12.14 13.635 11.891C13.635 11.64 13.5863 11.4224 13.4889 11.2385C13.3936 11.0545 13.2432 10.9138 13.0376 10.8164C12.8341 10.7168 12.5668 10.667 12.2356 10.667H10.9759V16.456H9.97266ZM13.2551 13.456L14.898 16.456H13.7551L12.1447 13.456H13.2551Z" fill="#FFA914"/>
</svg>
