<svg width="45" height="32" viewBox="0 0 45 32" fill="none" xmlns="http://www.w3.org/2000/svg">
<circle cx="30.3158" cy="15.7684" r="14.2299" fill="#429DE1" fill-opacity="0.2"/>
<path d="M32.7129 0H4.40703C3.26335 0.00309585 2.16758 0.459679 1.36008 1.2696C0.55258 2.07952 0.099281 3.17665 0.099611 4.32034V30.7673C0.0991817 31.0294 0.182415 31.2847 0.337192 31.4962C0.491969 31.7076 0.710208 31.8642 0.960133 31.943C1.21006 32.0218 1.47862 32.0188 1.72671 31.9344C1.9748 31.85 2.18948 31.6886 2.33947 31.4737L6.20507 25.9319H32.7129C33.8566 25.9288 34.9524 25.4722 35.7599 24.6623C36.5674 23.8524 37.0207 22.7553 37.0204 21.6116V4.32034C37.0207 3.17665 36.5674 2.07952 35.7599 1.2696C34.9524 0.459679 33.8566 0.00309585 32.7129 0ZM35.7897 21.6085C35.7905 22.4259 35.467 23.2103 34.8902 23.7895C34.3134 24.3688 33.5304 24.6955 32.7129 24.6981H5.88386C5.78482 24.6981 5.68723 24.722 5.59938 24.7677C5.51154 24.8134 5.43603 24.8797 5.37928 24.9609L1.3303 30.7673V4.32034C1.32948 3.5029 1.65296 2.71852 2.22977 2.13929C2.80657 1.56006 3.5896 1.2333 4.40703 1.23069H32.7129C33.5304 1.2333 34.3134 1.56006 34.8902 2.13929C35.467 2.71852 35.7905 3.5029 35.7897 4.32034V21.6085Z" fill="#429DE1"/>
<path d="M26.7197 11.6643C26.6848 11.354 26.5405 11.1136 26.2871 10.9432C26.0336 10.7706 25.7146 10.6842 25.33 10.6842C25.0546 10.6842 24.8164 10.7279 24.6154 10.8154C24.4144 10.9006 24.2581 11.0186 24.1467 11.1694C24.0374 11.3179 23.9828 11.4873 23.9828 11.6774C23.9828 11.8369 24.0199 11.9746 24.0942 12.0904C24.1707 12.2062 24.2701 12.3035 24.3925 12.3821C24.5171 12.4586 24.6504 12.5231 24.7924 12.5755C24.9344 12.6258 25.071 12.6673 25.2021 12.7001L25.8577 12.8705C26.0718 12.923 26.2914 12.994 26.5165 13.0836C26.7416 13.1732 26.9503 13.2912 27.1426 13.4376C27.3349 13.584 27.49 13.7653 27.608 13.9817C27.7282 14.198 27.7883 14.457 27.7883 14.7585C27.7883 15.1387 27.69 15.4763 27.4933 15.7713C27.2988 16.0663 27.0158 16.2991 26.6443 16.4695C26.275 16.6399 25.8282 16.7252 25.3037 16.7252C24.8011 16.7252 24.3663 16.6454 23.9992 16.4859C23.6321 16.3264 23.3447 16.1002 23.1371 15.8074C22.9295 15.5124 22.8148 15.1628 22.793 14.7585H23.8091C23.8287 15.0011 23.9074 15.2032 24.0451 15.3649C24.1849 15.5244 24.363 15.6435 24.5794 15.7222C24.7979 15.7987 25.0371 15.8369 25.2972 15.8369C25.5834 15.8369 25.838 15.7921 26.0609 15.7025C26.286 15.6107 26.463 15.484 26.5919 15.3223C26.7208 15.1584 26.7853 14.9672 26.7853 14.7487C26.7853 14.5498 26.7285 14.387 26.6148 14.2603C26.5034 14.1335 26.3515 14.0287 26.1592 13.9456C25.9691 13.8626 25.7539 13.7894 25.5135 13.726L24.7203 13.5097C24.1827 13.3633 23.7566 13.148 23.442 12.864C23.1295 12.5799 22.9732 12.204 22.9732 11.7364C22.9732 11.3496 23.0781 11.012 23.2879 10.7236C23.4977 10.4351 23.7818 10.2112 24.1401 10.0516C24.4985 9.88993 24.9028 9.80908 25.3529 9.80908C25.8074 9.80908 26.2084 9.88884 26.5558 10.0484C26.9055 10.2079 27.1808 10.4275 27.3818 10.7072C27.5829 10.9847 27.6878 11.3037 27.6965 11.6643H26.7197Z" fill="#429DE1"/>
<path d="M14.7754 9.90039H16.0046L18.1417 15.1186H18.2203L20.3574 9.90039H21.5866V16.6133H20.6229V11.7556H20.5606L18.5809 16.6034H17.7811L15.8013 11.7523H15.7391V16.6133H14.7754V9.90039Z" fill="#429DE1"/>
<path d="M12.4971 11.6643C12.4621 11.354 12.3179 11.1136 12.0644 10.9432C11.8109 10.7706 11.4919 10.6842 11.1073 10.6842C10.832 10.6842 10.5938 10.7279 10.3928 10.8154C10.1917 10.9006 10.0355 11.0186 9.92403 11.1694C9.81477 11.3179 9.76014 11.4873 9.76014 11.6774C9.76014 11.8369 9.79729 11.9746 9.87159 12.0904C9.94807 12.2062 10.0475 12.3035 10.1699 12.3821C10.2944 12.4586 10.4277 12.5231 10.5697 12.5755C10.7118 12.6258 10.8484 12.6673 10.9795 12.7001L11.635 12.8705C11.8492 12.923 12.0688 12.994 12.2939 13.0836C12.5189 13.1732 12.7276 13.2912 12.9199 13.4376C13.1122 13.584 13.2674 13.7653 13.3853 13.9817C13.5055 14.198 13.5656 14.457 13.5656 14.7585C13.5656 15.1387 13.4673 15.4763 13.2706 15.7713C13.0761 16.0663 12.7932 16.2991 12.4217 16.4695C12.0524 16.6399 11.6055 16.7252 11.0811 16.7252C10.5785 16.7252 10.1436 16.6454 9.77653 16.4859C9.40942 16.3264 9.12207 16.1002 8.91448 15.8074C8.70689 15.5124 8.59216 15.1628 8.57031 14.7585H9.58642C9.60609 15.0011 9.68475 15.2032 9.82242 15.3649C9.96227 15.5244 10.1404 15.6435 10.3567 15.7222C10.5752 15.7987 10.8145 15.8369 11.0745 15.8369C11.3608 15.8369 11.6154 15.7921 11.8382 15.7025C12.0633 15.6107 12.2403 15.484 12.3692 15.3223C12.4982 15.1584 12.5626 14.9672 12.5626 14.7487C12.5626 14.5498 12.5058 14.387 12.3922 14.2603C12.2807 14.1335 12.1289 14.0287 11.9366 13.9456C11.7465 13.8626 11.5312 13.7894 11.2909 13.726L10.4976 13.5097C9.96009 13.3633 9.53398 13.148 9.21931 12.864C8.90683 12.5799 8.75059 12.204 8.75059 11.7364C8.75059 11.3496 8.85548 11.012 9.06526 10.7236C9.27503 10.4351 9.55911 10.2112 9.91747 10.0516C10.2758 9.88993 10.6801 9.80908 11.1302 9.80908C11.5848 9.80908 11.9857 9.88884 12.3332 10.0484C12.6828 10.2079 12.9581 10.4275 13.1592 10.7072C13.3602 10.9847 13.4651 11.3037 13.4738 11.6643H12.4971Z" fill="#429DE1"/>
</svg>
