<svg width="39" height="32" viewBox="0 0 39 32" fill="none" xmlns="http://www.w3.org/2000/svg">
<circle cx="24.8491" cy="15.4981" r="13.9859" fill="#25D366" fill-opacity="0.2"/>
<path d="M24.7959 18.3582L21.7251 16.1167C21.3395 15.8343 20.8643 15.7177 20.3891 15.7939C19.9139 15.8657 19.497 16.1212 19.219 16.5067L18.2686 17.8068C18.2193 17.8741 18.2372 17.8113 18.2148 17.8965C18.2103 17.9054 18.1565 17.9772 17.9862 18.0041C17.6993 18.0489 16.8385 17.9951 14.9781 16.5067L14.7987 16.3767C12.8397 15.0722 12.5258 14.2697 12.481 13.9828C12.4586 13.8348 12.4945 13.7631 12.49 13.7586C12.5527 13.7183 12.5348 13.7183 12.5841 13.6555L13.5345 12.3554C13.817 11.9699 13.9335 11.4947 13.8573 11.0195C13.7811 10.5443 13.53 10.1274 13.1445 9.84492L10.0198 7.56305C9.22183 6.98026 8.09659 7.15509 7.51379 7.95308L6.55442 9.27109C5.70712 10.4322 5.47849 12.0192 5.95817 13.4179C6.69788 15.5743 8.58524 17.8651 11.571 20.2321C11.6113 20.2815 11.6561 20.3218 11.7099 20.3622C11.7861 20.416 11.8623 20.4697 11.9386 20.5191C12.0103 20.5773 12.0865 20.6311 12.1582 20.6894C12.2075 20.7298 12.2658 20.7611 12.3241 20.7836C15.4891 22.904 18.2462 24.0024 20.5281 24.0517C20.5595 24.0517 20.5864 24.0517 20.6177 24.0517C22.0344 24.0517 23.3838 23.3568 24.24 22.1778L25.1994 20.8598C25.4818 20.4742 25.5984 19.999 25.5222 19.5238C25.446 19.0486 25.1815 18.6407 24.7959 18.3582ZM24.1011 20.0708L23.1417 21.3888C22.523 22.2361 21.5502 22.7247 20.5415 22.7068C19.0935 22.6754 16.5695 22.0792 12.7186 19.4342C9.02906 16.574 7.68863 14.3504 7.21791 12.9831C6.8772 11.9968 7.0341 10.876 7.63035 10.0646L8.59421 8.74658C8.66594 8.64795 8.76905 8.58519 8.88561 8.56725C9.00216 8.54932 9.12321 8.57622 9.22183 8.64795L12.3465 10.9298C12.4451 11.0015 12.5079 11.1047 12.5258 11.2212C12.5438 11.3378 12.5169 11.4588 12.4451 11.5574L11.5261 12.8172C11.3109 13.0503 11.0957 13.4762 11.1316 14.0142C11.2033 15.0946 12.1582 16.2288 14.0321 17.4751L14.1666 17.5692C15.9419 18.9903 17.3182 19.5552 18.3673 19.2907C18.8918 19.1607 19.2325 18.829 19.3894 18.551L20.3084 17.2913C20.4519 17.0895 20.7343 17.0492 20.936 17.1926L24.0069 19.4342C24.1056 19.5059 24.1683 19.609 24.1862 19.7256C24.1997 19.8556 24.1728 19.9766 24.1011 20.0708Z" fill="#25D366"/>
<path d="M15.6872 0C7.09316 0 0.0996094 6.99356 0.0996094 15.5876C0.0996094 19.2726 1.39969 22.8232 3.77123 25.6296L1.00519 31.0227C0.884143 31.2603 0.915525 31.5517 1.08588 31.7579C1.21589 31.9148 1.40866 32 1.60143 32C1.66419 32 1.73144 31.991 1.7942 31.9731L9.21365 29.7674C11.2534 30.6999 13.4277 31.1706 15.6872 31.1706C24.2812 31.1706 31.2747 24.1771 31.2747 15.5831C31.2747 6.98907 24.2812 0 15.6872 0ZM15.6872 29.8257C13.5443 29.8257 11.4821 29.3595 9.55436 28.4405C9.40193 28.3687 9.23158 28.3553 9.07467 28.4046L2.91945 30.2337L5.17442 25.8358C5.29995 25.5892 5.26408 25.2889 5.07579 25.0782C2.73564 22.4646 1.44452 19.0888 1.44452 15.5831C1.44452 7.72877 7.83287 1.34043 15.6872 1.34043C23.5415 1.34043 29.9298 7.72877 29.9298 15.5831C29.9298 23.4374 23.5415 29.8257 15.6872 29.8257Z" fill="#25D366"/>
</svg>
